<svg preserveAspectRatio="none" width="100%" height="100%" overflow="visible" style="display: block;" viewBox="0 0 948 1115" fill="none" xmlns="http://www.w3.org/2000/svg">
<g id="Capa_1">
<path id="Vector" d="M946.964 670.105C946.964 610.101 897.907 561.028 837.924 561.028H627.274C627.274 558.814 627.274 556.738 627.438 554.716C629.65 525.862 632.136 497.007 634.348 468.153C638.445 414.79 629.459 365.333 594.687 322.107C556.665 274.863 496.71 259.07 447.489 280.465C421.075 291.941 404.331 312.625 405.806 343.884C406.708 362.956 408.401 382.028 408.183 401.073C408.019 414.489 407.309 428.506 403.293 441.103C392.231 475.667 370.953 503.838 343.42 527.146C311.571 554.087 276.526 574.526 233.396 575.263C174.342 576.274 115.288 576.411 56.2607 576.985C33.1798 577.203 10.1535 590.319 11.6285 616.632C11.9836 622.971 11.1095 629.365 11.5466 635.677C15.6711 693.002 19.7683 750.328 24.3298 807.627C26.8701 839.705 30.421 871.701 33.1798 903.752C35.283 928.508 36.7307 953.318 38.7793 978.074C39.189 982.937 40.2543 987.938 42.0571 992.446C50.8251 1014.2 67.6782 1024.06 90.5952 1024.17C130.12 1024.33 169.671 1023.62 209.168 1024.82C219.766 1025.15 232.14 1028.51 240.334 1034.85C274.86 1061.66 313.565 1080.16 354.264 1094.45C393.733 1108.33 435.388 1114.2 476.825 1114.69C529.187 1115.32 580.757 1108.19 630.961 1090.24C658.658 1080.35 683.87 1067.34 706.814 1050.13H764.093C812.112 1050.13 851.418 1010.81 851.418 962.772V951.897C851.418 935.776 847.594 920.529 840.82 906.977C886.435 902.741 922.436 864.078 922.436 817.381V810.14C922.436 787.707 915.225 766.886 903.07 749.836C929.428 733.005 947.019 703.522 947.019 670.105H946.964ZM887.009 670.105C887.009 688.822 871.194 704.642 852.483 704.642H605.313C578.244 704.642 556.228 682.619 556.228 655.541C556.228 636.824 572.043 621.004 590.754 621.004H837.924C864.993 621.004 887.009 643.027 887.009 670.105ZM431.591 1042.56C387.342 1035.26 345.905 1020.21 309.577 993.02C289.227 977.8 268.496 963.018 248.884 946.897C243.83 942.744 239.679 934.383 239.515 927.825C237.33 841.59 235.882 755.356 234.38 669.121C234.025 648.71 237.166 646.032 257.706 642.453C273.467 639.693 289.91 637.617 304.414 631.414C353.717 610.32 393.843 577.094 427.686 535.425C464.041 490.641 478.136 440.31 471.198 383.394C469.996 373.53 469.914 363.338 471.061 353.475C472.372 342.217 481.168 339.129 491.438 337.736C522.303 333.528 543.827 356.453 555.737 377.629C576.55 414.626 571.47 454.464 566.28 494.084C565.406 500.833 564.04 507.527 563.33 514.304C561.5 531.846 559.998 549.415 558.058 566.93C522.085 580.318 496.245 615.074 496.245 655.569C496.245 680.433 504.686 703.413 518.835 721.829C496.928 737.459 482.588 763.034 482.588 791.833V803.118C482.588 822.327 487.887 840.361 497.037 855.881C475.35 869.188 451.558 879.899 425.91 887.331C398.377 895.337 370.625 898.998 343.338 898.889C379.857 919.573 423.534 927.442 467.128 918.589C466.527 922.551 466.199 926.623 466.199 930.748V948.946C466.199 991.818 493.213 1028.65 531.017 1043.35C497.939 1048.62 464.56 1048.05 431.564 1042.61L431.591 1042.56ZM794.166 962.772C794.166 979.112 780.372 992.911 764.038 992.911H567.427C543.172 992.911 523.423 973.155 523.423 948.892V930.694C523.423 918.316 533.858 907.878 546.231 907.878H750.162C774.418 907.878 794.166 927.633 794.166 951.897V962.772ZM863.464 817.381C863.464 834.213 849.26 848.421 832.434 848.421H586.903C561.91 848.421 541.56 828.065 541.56 803.063V791.779C541.56 777.133 553.934 764.755 568.575 764.755H818.148C843.141 764.755 863.491 785.112 863.491 810.113V817.354L863.464 817.381Z" fill="var(--fill-0, #EFF6D6)"/>
<path id="Vector_2" d="M321.002 248.757C333.071 248.757 342.854 238.97 342.854 226.898C342.854 214.825 333.071 205.039 321.002 205.039C308.934 205.039 299.15 214.825 299.15 226.898C299.15 238.97 308.934 248.757 321.002 248.757Z" fill="var(--fill-0, #EFF6D6)"/>
<path id="Vector_3" d="M738.917 390.843C750.985 390.843 760.769 381.056 760.769 368.983C760.769 356.911 750.985 347.124 738.917 347.124C726.848 347.124 717.065 356.911 717.065 368.983C717.065 381.056 726.848 390.843 738.917 390.843Z" fill="var(--fill-0, #EFF6D6)"/>
<path id="Vector_4" d="M700.676 297.94C715.762 297.94 727.991 285.707 727.991 270.616C727.991 255.526 715.762 243.292 700.676 243.292C685.591 243.292 673.362 255.526 673.362 270.616C673.362 285.707 685.591 297.94 700.676 297.94Z" fill="var(--fill-0, #EFF6D6)"/>
<path id="Vector_5" d="M240.178 262.419L225.373 314.089L173.503 327.997L224.909 341.904L237.911 393.574L252.715 341.904L304.613 327.997L253.207 314.089L240.178 262.419Z" fill="var(--fill-0, #EFF6D6)"/>
<path id="Vector_6" d="M37.0391 407.646C39.1423 408.084 41.2455 408.275 43.2941 408.275C57.9621 408.275 71.1005 397.974 74.1051 383.028C111.581 197.552 276.288 62.9543 465.743 62.9543C557.11 62.9543 646.402 94.5955 717.229 152.031C787.045 208.673 836.212 287.885 855.687 375.076C859.484 392.044 876.309 402.701 893.245 398.93C910.207 395.132 920.887 378.301 917.09 361.36C894.528 260.37 837.632 168.671 756.835 103.148C674.891 36.614 571.505 -0.000160782 465.743 -0.000160782C359.98 -0.000160782 253.726 37.6523 171.127 105.99C89.6198 173.453 33.2697 267.392 12.4286 370.54C8.98692 387.591 19.9947 404.176 37.0391 407.619V407.646Z" fill="var(--fill-0, #EFF6D6)"/>
</g>
</svg>
